<mxfile host="app.diagrams.net" modified="2024-03-08T16:50:35.460Z" agent="Mozilla/5.0 (Windows NT 10.0; Win64; x64) AppleWebKit/537.36 (KHTML, like Gecko) Chrome/122.0.0.0 Safari/537.36" etag="ru4X0gNytmNkXnwfWpoc" version="24.0.2" type="device">
  <diagram name="Страница — 1" id="B7Ktf5HLPwnWE0uYaocz">
    <mxGraphModel dx="1235" dy="614" grid="1" gridSize="10" guides="1" tooltips="1" connect="1" arrows="1" fold="1" page="1" pageScale="1" pageWidth="827" pageHeight="1169" math="0" shadow="0">
      <root>
        <mxCell id="0" />
        <mxCell id="1" parent="0" />
        <mxCell id="8HZEjxp5eznqxF1BuwY9-1" value="Персонаж&lt;div&gt;&lt;br&gt;&lt;/div&gt;" style="shape=umlActor;verticalLabelPosition=bottom;verticalAlign=top;html=1;outlineConnect=0;" vertex="1" parent="1">
          <mxGeometry x="60" y="150" width="30" height="60" as="geometry" />
        </mxCell>
        <mxCell id="8HZEjxp5eznqxF1BuwY9-5" value="" style="rounded=0;whiteSpace=wrap;html=1;fillColor=#dae8fc;strokeColor=#6c8ebf;" vertex="1" parent="1">
          <mxGeometry x="200" y="40" width="440" height="520" as="geometry" />
        </mxCell>
        <mxCell id="8HZEjxp5eznqxF1BuwY9-6" value="Рухатись по локації" style="ellipse;whiteSpace=wrap;html=1;" vertex="1" parent="1">
          <mxGeometry x="210" y="205" width="110" height="40" as="geometry" />
        </mxCell>
        <mxCell id="8HZEjxp5eznqxF1BuwY9-7" style="rounded=0;orthogonalLoop=1;jettySize=auto;html=1;entryX=0.051;entryY=0.3;entryDx=0;entryDy=0;entryPerimeter=0;" edge="1" parent="1" target="8HZEjxp5eznqxF1BuwY9-6">
          <mxGeometry relative="1" as="geometry">
            <mxPoint x="90" y="170" as="sourcePoint" />
          </mxGeometry>
        </mxCell>
        <mxCell id="8HZEjxp5eznqxF1BuwY9-8" value="Взаємодіяти з NPC" style="ellipse;whiteSpace=wrap;html=1;" vertex="1" parent="1">
          <mxGeometry x="364" y="60" width="100" height="50" as="geometry" />
        </mxCell>
        <mxCell id="8HZEjxp5eznqxF1BuwY9-9" style="rounded=0;orthogonalLoop=1;jettySize=auto;html=1;entryX=0.052;entryY=0.691;entryDx=0;entryDy=0;entryPerimeter=0;" edge="1" parent="1" target="8HZEjxp5eznqxF1BuwY9-8">
          <mxGeometry relative="1" as="geometry">
            <mxPoint x="90" y="170" as="sourcePoint" />
          </mxGeometry>
        </mxCell>
        <mxCell id="8HZEjxp5eznqxF1BuwY9-10" value="Виконувати завдання" style="ellipse;whiteSpace=wrap;html=1;" vertex="1" parent="1">
          <mxGeometry x="240" y="60" width="90" height="50" as="geometry" />
        </mxCell>
        <mxCell id="8HZEjxp5eznqxF1BuwY9-11" style="rounded=0;orthogonalLoop=1;jettySize=auto;html=1;entryX=0.034;entryY=0.691;entryDx=0;entryDy=0;entryPerimeter=0;exitX=1;exitY=0.3333333333333333;exitDx=0;exitDy=0;exitPerimeter=0;" edge="1" parent="1" source="8HZEjxp5eznqxF1BuwY9-1" target="8HZEjxp5eznqxF1BuwY9-10">
          <mxGeometry relative="1" as="geometry">
            <mxPoint x="90" y="160" as="sourcePoint" />
          </mxGeometry>
        </mxCell>
        <mxCell id="8HZEjxp5eznqxF1BuwY9-12" value="Боротися з ворогом" style="ellipse;whiteSpace=wrap;html=1;" vertex="1" parent="1">
          <mxGeometry x="420" y="150" width="120" height="50" as="geometry" />
        </mxCell>
        <mxCell id="8HZEjxp5eznqxF1BuwY9-13" style="rounded=0;orthogonalLoop=1;jettySize=auto;html=1;entryX=0;entryY=0.5;entryDx=0;entryDy=0;" edge="1" parent="1" target="8HZEjxp5eznqxF1BuwY9-12">
          <mxGeometry relative="1" as="geometry">
            <mxPoint x="90" y="170" as="sourcePoint" />
          </mxGeometry>
        </mxCell>
        <mxCell id="8HZEjxp5eznqxF1BuwY9-17" style="rounded=0;orthogonalLoop=1;jettySize=auto;html=1;exitX=1;exitY=0.3333333333333333;exitDx=0;exitDy=0;exitPerimeter=0;entryX=0;entryY=0.5;entryDx=0;entryDy=0;" edge="1" parent="1" source="8HZEjxp5eznqxF1BuwY9-14" target="8HZEjxp5eznqxF1BuwY9-15">
          <mxGeometry relative="1" as="geometry" />
        </mxCell>
        <mxCell id="8HZEjxp5eznqxF1BuwY9-19" style="rounded=0;orthogonalLoop=1;jettySize=auto;html=1;exitX=1;exitY=0.3333333333333333;exitDx=0;exitDy=0;exitPerimeter=0;entryX=0.058;entryY=0.72;entryDx=0;entryDy=0;entryPerimeter=0;" edge="1" parent="1" source="8HZEjxp5eznqxF1BuwY9-14" target="8HZEjxp5eznqxF1BuwY9-6">
          <mxGeometry relative="1" as="geometry" />
        </mxCell>
        <mxCell id="8HZEjxp5eznqxF1BuwY9-23" style="rounded=0;orthogonalLoop=1;jettySize=auto;html=1;exitX=1;exitY=0.3333333333333333;exitDx=0;exitDy=0;exitPerimeter=0;entryX=0;entryY=0.5;entryDx=0;entryDy=0;" edge="1" parent="1" source="8HZEjxp5eznqxF1BuwY9-14" target="8HZEjxp5eznqxF1BuwY9-22">
          <mxGeometry relative="1" as="geometry" />
        </mxCell>
        <mxCell id="8HZEjxp5eznqxF1BuwY9-14" value="Ворог" style="shape=umlActor;verticalLabelPosition=bottom;verticalAlign=top;html=1;outlineConnect=0;" vertex="1" parent="1">
          <mxGeometry x="120" y="260" width="30" height="60" as="geometry" />
        </mxCell>
        <mxCell id="8HZEjxp5eznqxF1BuwY9-15" value="Нападати на персонажа" style="ellipse;whiteSpace=wrap;html=1;" vertex="1" parent="1">
          <mxGeometry x="340" y="270" width="100" height="50" as="geometry" />
        </mxCell>
        <mxCell id="8HZEjxp5eznqxF1BuwY9-20" value="Піднімати предмети" style="ellipse;whiteSpace=wrap;html=1;" vertex="1" parent="1">
          <mxGeometry x="480" y="90" width="100" height="50" as="geometry" />
        </mxCell>
        <mxCell id="8HZEjxp5eznqxF1BuwY9-21" style="rounded=0;orthogonalLoop=1;jettySize=auto;html=1;entryX=0;entryY=0.5;entryDx=0;entryDy=0;exitX=1;exitY=0.3333333333333333;exitDx=0;exitDy=0;exitPerimeter=0;" edge="1" parent="1" source="8HZEjxp5eznqxF1BuwY9-1" target="8HZEjxp5eznqxF1BuwY9-20">
          <mxGeometry relative="1" as="geometry">
            <mxPoint x="100" y="170" as="sourcePoint" />
          </mxGeometry>
        </mxCell>
        <mxCell id="8HZEjxp5eznqxF1BuwY9-22" value="Охороняє предмети" style="ellipse;whiteSpace=wrap;html=1;" vertex="1" parent="1">
          <mxGeometry x="280" y="330" width="100" height="50" as="geometry" />
        </mxCell>
        <mxCell id="8HZEjxp5eznqxF1BuwY9-24" value="Взаємодіяти з об&#39;єктами" style="ellipse;whiteSpace=wrap;html=1;" vertex="1" parent="1">
          <mxGeometry x="350" y="200" width="110" height="50" as="geometry" />
        </mxCell>
        <mxCell id="8HZEjxp5eznqxF1BuwY9-25" style="rounded=0;orthogonalLoop=1;jettySize=auto;html=1;entryX=0;entryY=0;entryDx=0;entryDy=0;exitX=1;exitY=0.3333333333333333;exitDx=0;exitDy=0;exitPerimeter=0;" edge="1" parent="1" source="8HZEjxp5eznqxF1BuwY9-1" target="8HZEjxp5eznqxF1BuwY9-24">
          <mxGeometry relative="1" as="geometry">
            <mxPoint x="100" y="170" as="sourcePoint" />
          </mxGeometry>
        </mxCell>
        <mxCell id="8HZEjxp5eznqxF1BuwY9-26" style="rounded=0;orthogonalLoop=1;jettySize=auto;html=1;exitX=1;exitY=0.3333333333333333;exitDx=0;exitDy=0;exitPerimeter=0;entryX=0;entryY=1;entryDx=0;entryDy=0;" edge="1" parent="1" source="8HZEjxp5eznqxF1BuwY9-14" target="8HZEjxp5eznqxF1BuwY9-24">
          <mxGeometry relative="1" as="geometry" />
        </mxCell>
        <mxCell id="8HZEjxp5eznqxF1BuwY9-29" style="rounded=0;orthogonalLoop=1;jettySize=auto;html=1;exitX=1;exitY=0.3333333333333333;exitDx=0;exitDy=0;exitPerimeter=0;entryX=0;entryY=0.5;entryDx=0;entryDy=0;" edge="1" parent="1" source="8HZEjxp5eznqxF1BuwY9-27" target="8HZEjxp5eznqxF1BuwY9-28">
          <mxGeometry relative="1" as="geometry" />
        </mxCell>
        <mxCell id="8HZEjxp5eznqxF1BuwY9-27" value="NPC" style="shape=umlActor;verticalLabelPosition=bottom;verticalAlign=top;html=1;outlineConnect=0;" vertex="1" parent="1">
          <mxGeometry x="40" y="400" width="30" height="60" as="geometry" />
        </mxCell>
        <mxCell id="8HZEjxp5eznqxF1BuwY9-28" value="Видає завдання" style="ellipse;whiteSpace=wrap;html=1;" vertex="1" parent="1">
          <mxGeometry x="258" y="410" width="106" height="60" as="geometry" />
        </mxCell>
        <mxCell id="8HZEjxp5eznqxF1BuwY9-30" value="ДІаграма процесу гри" style="text;html=1;align=center;verticalAlign=middle;whiteSpace=wrap;rounded=0;" vertex="1" parent="1">
          <mxGeometry x="480" y="40" width="160" height="30" as="geometry" />
        </mxCell>
      </root>
    </mxGraphModel>
  </diagram>
</mxfile>
